<svg width="160" height="1887" viewBox="0 0 160 1887" fill="none" xmlns="http://www.w3.org/2000/svg">
<path d="M-123.644 143.2C-123.644 115.467 -117.644 90.8 -105.644 69.2C-93.6437 47.3333 -76.9771 30.4 -55.6437 18.4C-34.0437 6.13332 -9.64375 -1.52588e-05 17.5563 -1.52588e-05C50.8896 -1.52588e-05 79.4229 8.79998 103.156 26.4C126.89 44 142.756 68 150.756 98.4H75.5563C69.9563 86.6667 61.9563 77.7333 51.5563 71.6C41.4229 65.4667 29.8229 62.4 16.7563 62.4C-4.31041 62.4 -21.3771 69.7333 -34.4437 84.4C-47.5104 99.0667 -54.0437 118.667 -54.0437 143.2C-54.0437 167.733 -47.5104 187.333 -34.4437 202C-21.3771 216.667 -4.31041 224 16.7563 224C29.8229 224 41.4229 220.933 51.5563 214.8C61.9563 208.667 69.9563 199.733 75.5563 188H150.756C142.756 218.4 126.89 242.4 103.156 260C79.4229 277.333 50.8896 286 17.5563 286C-9.64375 286 -34.0437 280 -55.6437 268C-76.9771 255.733 -93.6437 238.8 -105.644 217.2C-117.644 195.6 -123.644 170.933 -123.644 143.2ZM-33.5156 403.2V571.2C-33.5156 588 -29.3823 600.933 -21.1156 610C-12.849 619.067 -0.715614 623.6 15.2844 623.6C31.2844 623.6 43.5511 619.067 52.0844 610C60.6177 600.933 64.8844 588 64.8844 571.2V403.2H133.284V570.8C133.284 595.867 127.951 617.067 117.284 634.4C106.618 651.733 92.2177 664.8 74.0844 673.6C56.2177 682.4 36.2177 686.8 14.0844 686.8C-8.04896 686.8 -27.9156 682.533 -45.5156 674C-62.849 665.2 -76.5823 652.133 -86.7156 634.8C-96.849 617.2 -101.916 595.867 -101.916 570.8V403.2H-33.5156ZM53.0313 1084L-5.36874 978H-21.7687V1084H-90.1687V803.2H24.6313C46.7646 803.2 65.5646 807.067 81.0313 814.8C96.7646 822.533 108.498 833.2 116.231 846.8C123.965 860.133 127.831 875.067 127.831 891.6C127.831 910.267 122.498 926.933 111.831 941.6C101.431 956.267 85.9646 966.667 65.4313 972.8L130.231 1084H53.0313ZM-21.7687 929.6H20.6313C33.1646 929.6 42.4979 926.533 48.6313 920.4C55.0313 914.267 58.2313 905.6 58.2313 894.4C58.2313 883.733 55.0313 875.333 48.6313 869.2C42.4979 863.067 33.1646 860 20.6313 860H-21.7687V929.6ZM49.7156 1203.2V1484H-18.6844V1203.2H49.7156ZM15.8734 1886.8C-10.5266 1886.8 -34.7932 1880.67 -56.9266 1868.4C-78.7932 1856.13 -96.2599 1839.07 -109.327 1817.2C-122.127 1795.07 -128.527 1770.27 -128.527 1742.8C-128.527 1715.33 -122.127 1690.67 -109.327 1668.8C-96.2599 1646.93 -78.7932 1629.87 -56.9266 1617.6C-34.7932 1605.33 -10.5266 1599.2 15.8734 1599.2C42.2734 1599.2 66.4068 1605.33 88.2735 1617.6C110.407 1629.87 127.74 1646.93 140.273 1668.8C153.073 1690.67 159.473 1715.33 159.473 1742.8C159.473 1770.27 153.073 1795.07 140.273 1817.2C127.473 1839.07 110.14 1856.13 88.2735 1868.4C66.4068 1880.67 42.2734 1886.8 15.8734 1886.8ZM15.8734 1824.4C38.2734 1824.4 56.1401 1816.93 69.4734 1802C83.0735 1787.07 89.8735 1767.33 89.8735 1742.8C89.8735 1718 83.0735 1698.27 69.4734 1683.6C56.1401 1668.67 38.2734 1661.2 15.8734 1661.2C-6.79322 1661.2 -24.9266 1668.53 -38.5266 1683.2C-51.8599 1697.87 -58.5266 1717.73 -58.5266 1742.8C-58.5266 1767.6 -51.8599 1787.47 -38.5266 1802.4C-24.9266 1817.07 -6.79322 1824.4 15.8734 1824.4Z" fill="#03357C"/>
</svg>
