<svg width="36" height="23" viewBox="0 0 36 23" fill="none" xmlns="http://www.w3.org/2000/svg">
<path d="M14.1081 6.75C14.1081 5.49022 13.5614 4.28204 12.5882 3.39124C11.6151 2.50045 10.2952 2 8.91892 2H8.05405C6.44842 2 4.90855 2.58385 3.77319 3.62312C2.63784 4.66238 2 6.07193 2 7.54167V15.4583C2 16.9281 2.63784 18.3376 3.77319 19.3769C4.90855 20.4161 6.44842 21 8.05405 21H8.91892C10.2952 21 11.6151 20.4996 12.5882 19.6088C13.5614 18.718 14.1081 17.5098 14.1081 16.25M24.4865 3.58333L22.7568 19.4167M31.4054 3.58333L29.6757 19.4167M21.027 8.33333H34M33.1351 14.6667H20.1622" stroke="black" stroke-width="4" stroke-linecap="round" stroke-linejoin="round"/>
</svg>
