<svg width="32" height="48" viewBox="0 0 32 48" fill="none" xmlns="http://www.w3.org/2000/svg">
<path d="M24 15.8025C26.1217 15.8025 28.1566 14.97 29.6569 13.4883C31.1571 12.0065 32 9.99677 32 7.90123C32 5.8057 31.1571 3.79599 29.6569 2.31422C28.1566 0.832449 26.1217 0 24 0H8C5.87827 0 3.84344 0.832449 2.34315 2.31422C0.842858 3.79599 3.56145e-06 5.8057 3.56145e-06 7.90123C3.56145e-06 9.99677 0.842858 12.0065 2.34315 13.4883C3.84344 14.97 5.87827 15.8025 8 15.8025C5.87827 15.8025 3.84344 16.6349 2.34315 18.1167C0.842858 19.5985 3.56145e-06 21.6082 3.56145e-06 23.7037C3.56145e-06 25.7992 0.842858 27.8089 2.34315 29.2907C3.84344 30.7725 5.87827 31.6049 8 31.6049C6.41775 31.6049 4.87103 32.0683 3.55544 32.9365C2.23985 33.8047 1.21447 35.0387 0.608967 36.4825C0.00346627 37.9263 -0.15496 39.5149 0.153721 41.0476C0.462403 42.5803 1.22433 43.9882 2.34315 45.0932C3.46197 46.1982 4.88743 46.9507 6.43928 47.2556C7.99113 47.5605 9.59966 47.404 11.0615 46.806C12.5233 46.2079 13.7727 45.1952 14.6518 43.8959C15.5308 42.5965 16 41.0689 16 39.5062V15.8025H24Z" fill="black"/>
<path d="M23.7035 33.1854C28.2854 33.1854 31.9998 29.471 31.9998 24.8891C31.9998 20.3072 28.2854 16.5928 23.7035 16.5928C19.1216 16.5928 15.4072 20.3072 15.4072 24.8891C15.4072 29.471 19.1216 33.1854 23.7035 33.1854Z" fill="black"/>
</svg>
