<svg width="28" height="294" viewBox="0 0 28 294" fill="none" xmlns="http://www.w3.org/2000/svg">
<path d="M-16.0673 23.1755C-16.0673 18.8768 -15.1373 15.0535 -13.2773 11.7055C-11.4173 8.31618 -8.83395 5.69151 -5.52728 3.83151C-2.17928 1.93018 1.60272 0.979509 5.81872 0.979509C10.9854 0.979509 15.4081 2.34351 19.0867 5.07151C22.7654 7.79951 25.2247 11.5195 26.4647 16.2315H14.8087C13.9407 14.4128 12.7007 13.0282 11.0887 12.0775C9.51805 11.1268 7.72005 10.6515 5.69472 10.6515C2.42939 10.6515 -0.215947 11.7882 -2.24128 14.0615C-4.26661 16.3348 -5.27928 19.3728 -5.27928 23.1755C-5.27928 26.9782 -4.26661 30.0162 -2.24128 32.2895C-0.215947 34.5628 2.42939 35.6995 5.69472 35.6995C7.72005 35.6995 9.51805 35.2242 11.0887 34.2735C12.7007 33.3228 13.9407 31.9382 14.8087 30.1195H26.4647C25.2247 34.8315 22.7654 38.5515 19.0867 41.2795C15.4081 43.9662 10.9854 45.3095 5.81872 45.3095C1.60272 45.3095 -2.17928 44.3795 -5.52728 42.5195C-8.83395 40.6182 -11.4173 37.9935 -13.2773 34.6455C-15.1373 31.2975 -16.0673 27.4742 -16.0673 23.1755ZM-2.09742 63.4755V89.5155C-2.09742 92.1195 -1.45675 94.1242 -0.175421 95.5295C1.10591 96.9348 2.98658 97.6375 5.46658 97.6375C7.94658 97.6375 9.84791 96.9348 11.1706 95.5295C12.4932 94.1242 13.1546 92.1195 13.1546 89.5155V63.4755H23.7566V89.4535C23.7566 93.3388 22.9299 96.6248 21.2766 99.3115C19.6232 101.998 17.3912 104.024 14.5806 105.388C11.8112 106.752 8.71125 107.434 5.28058 107.434C1.84991 107.434 -1.22942 106.772 -3.95742 105.45C-6.64409 104.086 -8.77275 102.06 -10.3434 99.3735C-11.9141 96.6455 -12.6994 93.3388 -12.6994 89.4535V63.4755H-2.09742ZM11.3173 169L2.26534 152.57H-0.276656V169H-10.8787V125.476H6.91534C10.346 125.476 13.26 126.075 15.6573 127.274C18.096 128.472 19.9147 130.126 21.1133 132.234C22.312 134.3 22.9113 136.615 22.9113 139.178C22.9113 142.071 22.0847 144.654 20.4313 146.928C18.8193 149.201 16.422 150.813 13.2393 151.764L23.2833 169H11.3173ZM-0.276656 145.068H6.29534C8.23801 145.068 9.68468 144.592 10.6353 143.642C11.6273 142.691 12.1233 141.348 12.1233 139.612C12.1233 137.958 11.6273 136.656 10.6353 135.706C9.68468 134.755 8.23801 134.28 6.29534 134.28H-0.276656V145.068ZM10.8034 187.476V231H0.201422V187.476H10.8034ZM5.55788 293.434C1.46588 293.434 -2.29545 292.483 -5.72612 290.582C-9.11545 288.68 -11.8228 286.035 -13.8481 282.646C-15.8321 279.215 -16.8241 275.371 -16.8241 271.114C-16.8241 266.856 -15.8321 263.033 -13.8481 259.644C-11.8228 256.254 -9.11545 253.609 -5.72612 251.708C-2.29545 249.806 1.46588 248.856 5.55788 248.856C9.64988 248.856 13.3906 249.806 16.7799 251.708C20.2106 253.609 22.8972 256.254 24.8399 259.644C26.8239 263.033 27.8159 266.856 27.8159 271.114C27.8159 275.371 26.8239 279.215 24.8399 282.646C22.8559 286.035 20.1692 288.68 16.7799 290.582C13.3906 292.483 9.64988 293.434 5.55788 293.434ZM5.55788 283.762C9.02988 283.762 11.7992 282.604 13.8659 280.29C15.9739 277.975 17.0279 274.916 17.0279 271.114C17.0279 267.27 15.9739 264.211 13.8659 261.938C11.7992 259.623 9.02988 258.466 5.55788 258.466C2.04455 258.466 -0.766116 259.602 -2.87412 261.876C-4.94078 264.149 -5.97412 267.228 -5.97412 271.114C-5.97412 274.958 -4.94078 278.037 -2.87412 280.352C-0.766116 282.625 2.04455 283.762 5.55788 283.762Z" fill="white"/>
</svg>
