<svg width="37" height="43" viewBox="0 0 37 43" fill="none" xmlns="http://www.w3.org/2000/svg">
<path d="M32.966 2H4.88736C4.60423 2.00003 4.32422 2.05918 4.06525 2.17364C3.80629 2.28811 3.57407 2.45538 3.38347 2.66475C3.19286 2.87412 3.04806 3.12098 2.95834 3.38952C2.86862 3.65807 2.83595 3.94238 2.86243 4.22428L5.59625 33.3789C5.62935 33.7337 5.75511 34.0737 5.96091 34.3646C6.16671 34.6555 6.44534 34.8873 6.7689 35.0367L18.0744 40.2541C18.3416 40.3774 18.6324 40.4413 18.9267 40.4413C19.221 40.4413 19.5117 40.3774 19.7789 40.2541L31.0844 35.0367C31.4082 34.8875 31.687 34.6557 31.893 34.3648C32.099 34.0738 32.2249 33.7339 32.2581 33.3789L34.9909 4.22428C35.0174 3.94238 34.9847 3.65807 34.895 3.38952C34.8053 3.12098 34.6605 2.87412 34.4699 2.66475C34.2793 2.45538 34.047 2.28811 33.7881 2.17364C33.5291 2.05918 33.2491 2.00003 32.966 2Z" stroke="black" stroke-width="4"/>
<path d="M27.0628 9.11914H10.79L11.8071 18.2726H26.0457L25.0287 29.4601L18.9264 32.5112L12.8241 29.4601L12.3156 24.3748" stroke="black" stroke-width="4" stroke-linecap="round" stroke-linejoin="round"/>
</svg>
