<svg width="27" height="27" viewBox="0 0 27 27" fill="none" xmlns="http://www.w3.org/2000/svg">
<path d="M7.83049 -0.000366211H19.1705C23.4905 -0.000366211 27.0005 3.50963 27.0005 7.82963V19.1696C27.0005 21.2463 26.1755 23.2379 24.7071 24.7063C23.2387 26.1747 21.2471 26.9996 19.1705 26.9996H7.83049C3.51049 26.9996 0.000488281 23.4896 0.000488281 19.1696V7.82963C0.000488281 5.75299 0.825433 3.7614 2.29384 2.29299C3.76225 0.824578 5.75384 -0.000366211 7.83049 -0.000366211ZM7.56049 2.69963C6.27154 2.69963 5.03538 3.21167 4.12395 4.1231C3.21252 5.03452 2.70049 6.27068 2.70049 7.55963V19.4396C2.70049 22.1261 4.87399 24.2996 7.56049 24.2996H19.4405C20.7294 24.2996 21.9656 23.7876 22.877 22.8762C23.7885 21.9647 24.3005 20.7286 24.3005 19.4396V7.55963C24.3005 4.87313 22.127 2.69963 19.4405 2.69963H7.56049ZM20.588 4.72463C21.0355 4.72463 21.4648 4.90242 21.7812 5.21889C22.0977 5.53536 22.2755 5.96458 22.2755 6.41213C22.2755 6.85969 22.0977 7.28891 21.7812 7.60538C21.4648 7.92184 21.0355 8.09963 20.588 8.09963C20.1404 8.09963 19.7112 7.92184 19.3947 7.60538C19.0783 7.28891 18.9005 6.85969 18.9005 6.41213C18.9005 5.96458 19.0783 5.53536 19.3947 5.21889C19.7112 4.90242 20.1404 4.72463 20.588 4.72463ZM13.5005 6.74963C15.2907 6.74963 17.0076 7.46079 18.2735 8.72666C19.5393 9.99253 20.2505 11.7094 20.2505 13.4996C20.2505 15.2898 19.5393 17.0067 18.2735 18.2726C17.0076 19.5385 15.2907 20.2496 13.5005 20.2496C11.7103 20.2496 9.99339 19.5385 8.72752 18.2726C7.46165 17.0067 6.75049 15.2898 6.75049 13.4996C6.75049 11.7094 7.46165 9.99253 8.72752 8.72666C9.99339 7.46079 11.7103 6.74963 13.5005 6.74963ZM13.5005 9.44963C12.4264 9.44963 11.3962 9.87633 10.6367 10.6359C9.87718 11.3954 9.45049 12.4255 9.45049 13.4996C9.45049 14.5738 9.87718 15.6039 10.6367 16.3634C11.3962 17.1229 12.4264 17.5496 13.5005 17.5496C14.5746 17.5496 15.6047 17.1229 16.3643 16.3634C17.1238 15.6039 17.5505 14.5738 17.5505 13.4996C17.5505 12.4255 17.1238 11.3954 16.3643 10.6359C15.6047 9.87633 14.5746 9.44963 13.5005 9.44963Z" fill="white"/>
</svg>
