<svg width="32" height="32" viewBox="0 0 32 32" fill="none" xmlns="http://www.w3.org/2000/svg">
<path d="M5.33333 0C3.91885 0 2.56229 0.561903 1.5621 1.5621C0.561903 2.56229 0 3.91885 0 5.33333V26.6667C0 28.0812 0.561903 29.4377 1.5621 30.4379C2.56229 31.4381 3.91885 32 5.33333 32H26.6667C28.0812 32 29.4377 31.4381 30.4379 30.4379C31.4381 29.4377 32 28.0812 32 26.6667V5.33333C32 3.91885 31.4381 2.56229 30.4379 1.5621C29.4377 0.561903 28.0812 0 26.6667 0H5.33333ZM18.3716 23.2089C19.6516 24.24 20.928 24.7467 22.2044 24.7342C22.9867 24.7342 23.5876 24.592 24.0036 24.304C24.1978 24.1779 24.3558 24.0034 24.4621 23.7977C24.5684 23.5919 24.6193 23.362 24.6098 23.1307C24.6124 22.8783 24.5596 22.6284 24.4551 22.3987C24.3507 22.1689 24.1972 21.9649 24.0053 21.8009C23.5876 21.4364 22.7982 21.072 21.6373 20.7058C20.2436 20.3022 19.1662 19.7813 18.4107 19.1413C17.6676 18.5013 17.2907 17.6089 17.2764 16.4622C17.2764 15.3796 17.7458 14.4747 18.6844 13.744C19.5982 13.0151 20.7644 12.6489 22.1867 12.6489C24.1671 12.6489 25.7582 13.1307 26.9564 14.096L25.5876 16.2276C25.0947 15.8442 24.5292 15.5648 23.9253 15.4062C23.3826 15.2247 22.8157 15.1258 22.2436 15.1129C21.568 15.1129 21.0258 15.2373 20.6204 15.4844C20.2169 15.7333 20.016 16.0587 20.016 16.4622C20.016 16.9067 20.2631 17.2836 20.7573 17.5964C21.2551 17.8969 22.1013 18.2293 23.2996 18.5938C24.7467 19.024 25.7778 19.5982 26.3893 20.3147C27.0027 21.0311 27.3084 21.9449 27.3084 23.0524C27.3084 24.1867 26.8729 25.1644 25.9982 25.9858C25.1378 26.7947 23.8862 27.2178 22.2436 27.2569C20.0924 27.2569 18.2933 26.6116 16.8462 25.3209L18.3716 23.2089ZM8.54044 24.3431C8.95822 24.6044 9.45956 24.7342 10.0462 24.7342C10.6596 24.7342 11.1662 24.5582 11.5716 24.2062C11.9751 23.8418 12.1778 23.2089 12.1778 22.3093V12.8836H14.8178V22.8178C14.7787 24.3556 14.336 25.4649 13.488 26.1422C13.0253 26.5357 12.4859 26.8287 11.904 27.0027C11.365 27.1669 10.8052 27.2525 10.2418 27.2569C9.264 27.2569 8.39644 27.088 7.64089 26.7484C6.832 26.384 6.15467 25.7387 5.60711 24.8124L7.44533 23.3067C7.78311 23.7636 8.14933 24.1084 8.54044 24.3431Z" fill="black"/>
</svg>
