<svg width="27" height="27" viewBox="0 0 27 27" fill="none" xmlns="http://www.w3.org/2000/svg">
<path d="M5.66681 3.00097C5.66643 3.79657 5.36758 4.55943 4.83599 5.12173C4.30441 5.68403 3.58363 5.9997 2.83223 5.9993C2.08083 5.9989 1.36035 5.68247 0.8293 5.11961C0.298245 4.55675 0.000112936 3.79357 0.000488636 2.99797C0.000864336 2.20236 0.299717 1.4395 0.831303 0.877204C1.36289 0.314908 2.08366 -0.000763638 2.83506 -0.000365835C3.58646 3.19672e-05 4.30694 0.316466 4.83799 0.879326C5.36905 1.44218 5.66718 2.20536 5.66681 3.00097ZM5.7518 8.22068H0.0854833V26.9996H5.7518V8.22068ZM14.7046 8.22068H9.0666V26.9996H14.6479V17.1452C14.6479 11.6555 21.405 11.1455 21.405 17.1452V26.9996H27.0005V15.1053C27.0005 5.85081 16.9994 6.19579 14.6479 10.7405L14.7046 8.22068Z" fill="white"/>
</svg>
