<svg width="225" height="362" viewBox="0 0 225 362" fill="none" xmlns="http://www.w3.org/2000/svg">
<path d="M64.5958 223H31.4042C31.0695 223 30.7385 223.07 30.4324 223.205C30.1263 223.341 29.8518 223.538 29.6265 223.786C29.4011 224.033 29.23 224.325 29.1239 224.643C29.0179 224.96 28.9792 225.296 29.0105 225.629L32.2422 260.093C32.2813 260.512 32.43 260.914 32.6732 261.258C32.9165 261.602 33.2459 261.876 33.6284 262.053L46.9925 268.22C47.3084 268.366 47.6521 268.441 48 268.441C48.3479 268.441 48.6916 268.366 49.0075 268.22L62.3716 262.053C62.7543 261.876 63.084 261.602 63.3275 261.258C63.571 260.914 63.7198 260.512 63.759 260.093L66.9895 225.629C67.0208 225.296 66.9821 224.96 66.8761 224.643C66.77 224.325 66.5989 224.033 66.3735 223.786C66.1482 223.538 65.8737 223.341 65.5676 223.205C65.2615 223.07 64.9305 223 64.5958 223Z" stroke="black" stroke-width="4"/>
<path d="M57.6178 231.416H38.3818L39.5841 242.236H56.4155L55.2133 255.461L47.9998 259.067L40.7863 255.461L40.1852 249.449" stroke="black" stroke-width="4" stroke-linecap="round" stroke-linejoin="round"/>
<path d="M67.5 110H88.5L86.59 131.563L77.977 134L69.412 131.562L67.5 110ZM84.59 114.413L71.41 114.41L71.623 117.032L81.748 117.034L81.493 119.75H74.853L75.093 122.323H81.275L80.909 125.846L77.999 126.65L75.043 125.84L74.855 123.73H72.245L72.535 127.585L78 129.288L83.373 127.758L84.59 114.413Z" fill="black"/>
<path d="M63 65.5C56.271 65.5 51 68.355 51 72C51 75.645 56.271 78.5 63 78.5C69.729 78.5 75 75.645 75 72C75 68.355 69.729 65.5 63 65.5ZM61.754 67.5H63.064L62.648 69.5H63.818C64.56 69.5 65.058 69.604 65.342 69.863C65.619 70.119 65.703 70.539 65.592 71.111L65.072 73.5H63.74L64.219 71.291C64.277 70.988 64.254 70.777 64.152 70.666C64.051 70.555 63.828 70.5 63.494 70.5H62.445L61.812 73.5H60.5L61.754 67.5ZM56 69.5H58.666C59.937 69.5 60.707 70.352 60.406 71.623C60.056 73.1 59.12 73.5 57.396 73.5H56.572L56.311 75H54.986L56 69.5ZM66.5 69.5H69.166C70.437 69.5 71.207 70.352 70.906 71.623C70.556 73.1 69.619 73.5 67.896 73.5H67.072L66.811 75H65.486L66.5 69.5ZM57.135 70.5L56.758 72.5H57.613C58.353 72.5 59.041 72.416 59.156 71.312C59.199 70.885 59.021 70.5 58.166 70.5H57.135ZM67.635 70.5L67.258 72.5H68.113C68.853 72.5 69.541 72.416 69.656 71.312C69.699 70.885 69.522 70.5 68.666 70.5H67.635Z" fill="black"/>
<path d="M84.5852 174.692H88.9132C88.9132 174.692 91.3452 174.731 91.3452 172.342V168.391C91.3452 168.391 91.7142 166 86.9362 166C82.3622 166 82.6472 167.983 82.6472 167.983L82.6532 170.038H87.0162V170.655H80.9202C80.9202 170.655 77.9932 170.323 77.9932 174.937C77.9932 179.551 80.5482 179.387 80.5482 179.387H82.0722V177.246C82.0722 177.246 81.9892 174.692 84.5852 174.692ZM84.5292 168.952C84.321 168.952 84.1213 168.869 83.9741 168.722C83.8269 168.575 83.7442 168.375 83.7442 168.167C83.7442 167.959 83.8269 167.759 83.9741 167.612C84.1213 167.465 84.321 167.382 84.5292 167.382C84.7374 167.382 84.937 167.465 85.0842 167.612C85.2315 167.759 85.3142 167.959 85.3142 168.167C85.3142 168.375 85.2315 168.575 85.0842 168.722C84.937 168.869 84.7374 168.952 84.5292 168.952Z" fill="black"/>
<path d="M93.452 170.532H91.928V172.673C91.928 172.673 92.011 175.227 89.415 175.227H85.087C85.087 175.227 82.655 175.187 82.655 177.577V181.528C82.655 181.528 82.286 183.919 87.064 183.919C91.637 183.919 91.352 181.936 91.352 181.936L91.346 179.882H86.983V179.265H93.08C93.08 179.265 96.007 179.597 96.007 174.983C96.007 170.369 93.452 170.532 93.452 170.532ZM89.471 180.968C89.6792 180.968 89.8789 181.051 90.0261 181.198C90.1733 181.345 90.256 181.545 90.256 181.753C90.256 181.961 90.1733 182.161 90.0261 182.308C89.8789 182.455 89.6792 182.538 89.471 182.538C89.2628 182.538 89.0632 182.455 88.916 182.308C88.7687 182.161 88.686 181.961 88.686 181.753C88.686 181.545 88.7687 181.345 88.916 181.198C89.0632 181.051 89.2628 180.968 89.471 180.968Z" fill="black"/>
<path d="M26 138C25.2044 138 24.4413 138.316 23.8787 138.879C23.3161 139.441 23 140.204 23 141V153C23 153.796 23.3161 154.559 23.8787 155.121C24.4413 155.684 25.2044 156 26 156H38C38.7956 156 39.5587 155.684 40.1213 155.121C40.6839 154.559 41 153.796 41 153V141C41 140.204 40.6839 139.441 40.1213 138.879C39.5587 138.316 38.7956 138 38 138H26ZM33.334 151.055C34.054 151.635 34.772 151.92 35.49 151.913C35.93 151.913 36.268 151.833 36.502 151.671C36.6113 151.6 36.7002 151.502 36.76 151.386C36.8197 151.27 36.8484 151.141 36.843 151.011C36.8445 150.869 36.8148 150.729 36.756 150.599C36.6973 150.47 36.6109 150.355 36.503 150.263C36.268 150.058 35.824 149.853 35.171 149.647C34.387 149.42 33.781 149.127 33.356 148.767C32.938 148.407 32.726 147.905 32.718 147.26C32.718 146.651 32.982 146.142 33.51 145.731C34.024 145.321 34.68 145.115 35.48 145.115C36.594 145.115 37.489 145.386 38.163 145.929L37.393 147.128C37.1158 146.912 36.7977 146.755 36.458 146.666C36.1527 146.564 35.8338 146.508 35.512 146.501C35.132 146.501 34.827 146.571 34.599 146.71C34.372 146.85 34.259 147.033 34.259 147.26C34.259 147.51 34.398 147.722 34.676 147.898C34.956 148.067 35.432 148.254 36.106 148.459C36.92 148.701 37.5 149.024 37.844 149.427C38.189 149.83 38.361 150.344 38.361 150.967C38.361 151.605 38.116 152.155 37.624 152.617C37.14 153.072 36.436 153.31 35.512 153.332C34.302 153.332 33.29 152.969 32.476 152.243L33.334 151.055ZM27.804 151.693C28.039 151.84 28.321 151.913 28.651 151.913C28.996 151.913 29.281 151.814 29.509 151.616C29.736 151.411 29.85 151.055 29.85 150.549V145.247H31.335V150.835C31.313 151.7 31.064 152.324 30.587 152.705C30.3267 152.926 30.0233 153.091 29.696 153.189C29.3928 153.281 29.0779 153.33 28.761 153.332C28.211 153.332 27.723 153.237 27.298 153.046C26.843 152.841 26.462 152.478 26.154 151.957L27.188 151.11C27.378 151.367 27.584 151.561 27.804 151.693Z" fill="black"/>
<path d="M90.1351 282.5C90.1351 280.776 89.4517 279.123 88.2353 277.904C87.0188 276.685 85.369 276 83.6486 276H82.5676C80.5605 276 78.6357 276.799 77.2165 278.221C75.7973 279.643 75 281.572 75 283.583V294.417C75 296.428 75.7973 298.357 77.2165 299.779C78.6357 301.201 80.5605 302 82.5676 302H83.6486C85.369 302 87.0188 301.315 88.2353 300.096C89.4517 298.877 90.1351 297.224 90.1351 295.5M103.108 278.167L100.946 299.833M111.757 278.167L109.595 299.833M98.7838 284.667H115M113.919 293.333H97.7027" stroke="black" stroke-width="2" stroke-linecap="round" stroke-linejoin="round"/>
<g clip-path="url(#clip0_228_279)">
<path d="M183.419 244.585H170.665V241.405H168.288L150 244.593V272.415L168.181 275.595H170.665V272.427H182.6C183.276 272.395 184.028 272.447 184.608 272.033C185.073 271.322 184.954 270.431 184.994 269.628V246.128C185.077 245.221 184.326 244.494 183.419 244.585ZM163.263 263.903C162.599 264.249 161.605 263.887 160.818 263.943C160.289 261.311 159.673 258.695 159.2 256.051C158.734 258.619 158.13 261.164 157.597 263.716C156.834 263.676 156.067 263.629 155.3 263.577C154.64 260.078 153.864 256.604 153.248 253.097C153.928 253.065 154.612 253.038 155.292 253.014C155.701 255.546 156.166 258.067 156.524 260.603C157.085 258.003 157.657 255.403 158.214 252.803C158.969 252.759 159.724 252.727 160.48 252.688C161.009 255.371 161.549 258.051 162.122 260.722C162.571 257.963 163.068 255.212 163.549 252.457C164.344 252.429 165.139 252.386 165.93 252.338C165.032 256.19 164.245 260.074 163.263 263.903ZM183.101 270.539H170.665V268.042H181.002V266.451H170.665V264.464H181.002V262.873H170.665V260.885H181.002V259.295H170.665V257.307H181.002V255.717H170.665V253.729H181.002V252.139H170.665V250.151H181.002V248.561H170.665V246.462H183.101V270.539Z" fill="black"/>
</g>
<path d="M131.5 159H116.5C115.837 159 115.201 159.263 114.732 159.732C114.263 160.201 114 160.837 114 161.5V176.5C114 177.163 114.263 177.799 114.732 178.268C115.201 178.737 115.837 179 116.5 179H131.5C132.163 179 132.799 178.737 133.268 178.268C133.737 177.799 134 177.163 134 176.5V161.5C134 160.837 133.737 160.201 133.268 159.732C132.799 159.263 132.163 159 131.5 159ZM122.7 174.2C122.7 174.518 122.574 174.823 122.349 175.049C122.123 175.274 121.818 175.4 121.5 175.4H117.8C117.14 175.4 116.6 174.86 116.6 174.2V162.8C116.6 162.482 116.726 162.177 116.951 161.951C117.177 161.726 117.482 161.6 117.8 161.6H121.5C122.16 161.6 122.7 162.14 122.7 162.8V174.2ZM131.4 169.2C131.4 169.86 130.86 170.4 130.2 170.4H126.5C125.84 170.4 125.3 169.86 125.3 169.2V162.8C125.3 162.14 125.84 161.6 126.5 161.6H130.2C130.86 161.6 131.4 162.14 131.4 162.8V169.2Z" fill="black"/>
<g clip-path="url(#clip1_228_279)">
<path d="M41.392 176H37.9L41 180.808L34.444 176H30.949L34.051 182.3L27.494 176H24L27.05 184.131L24 200H27.494L34.05 182.985L30.949 200H34.443L41 181.494L37.899 200H41.392L48 179.672L41.392 176Z" fill="black"/>
</g>
<g clip-path="url(#clip2_228_279)">
<path d="M46.8622 91.8472H37.7574V89.292H36.1476L23 91.569V111.437L35.9915 113.708H37.7574V110.869H46.2774C46.7628 110.846 47.3023 110.894 47.7168 110.593C48.0461 110.085 47.9663 109.449 47.9947 108.876V92.9601C48.06 92.3071 47.5152 91.7847 46.8622 91.8472ZM31.3269 102.443C30.6825 102.772 29.9443 102.726 29.2431 102.704L29.2402 106.034L27.551 105.892L27.5538 96.7928C29.0955 96.8666 30.9635 96.1824 32.2411 97.3379C33.4647 98.8228 33.1411 101.554 31.3269 102.443ZM46.638 109.529H37.7574V107.746H44.5711V106.61H37.7574V105.191H44.5711V104.055H37.7602C37.7602 104.055 37.7574 102.942 37.7545 102.386C38.8788 102.735 40.1592 102.726 41.1642 102.051C42.2516 101.406 42.8194 100.177 42.9131 98.9505H39.1769V95.2427L37.7574 95.5295V93.1871H46.638V109.529ZM39.7445 94.6493C41.7176 94.7401 43.3787 96.4082 43.4837 98.3756H39.7445V94.6493ZM29.2402 98.3287C29.7995 98.3032 30.4922 98.201 30.8698 98.7262C31.1935 99.2827 31.1765 100.015 30.9067 100.589C30.5831 101.173 29.8506 101.117 29.2856 101.185C29.2261 100.234 29.2317 99.2827 29.2402 98.3287Z" fill="black"/>
</g>
<path d="M141.25 208.333C143.04 208.333 144.757 207.631 146.023 206.381C147.289 205.13 148 203.435 148 201.667C148 199.899 147.289 198.203 146.023 196.953C144.757 195.702 143.04 195 141.25 195H127.75C125.96 195 124.243 195.702 122.977 196.953C121.711 198.203 121 199.899 121 201.667C121 203.435 121.711 205.13 122.977 206.381C124.243 207.631 125.96 208.333 127.75 208.333C125.96 208.333 124.243 209.036 122.977 210.286C121.711 211.536 121 213.232 121 215C121 216.768 121.711 218.464 122.977 219.714C124.243 220.964 125.96 221.667 127.75 221.667C126.415 221.667 125.11 222.058 124 222.79C122.89 223.523 122.025 224.564 121.514 225.782C121.003 227 120.869 228.341 121.13 229.634C121.39 230.927 122.033 232.115 122.977 233.047C123.921 233.98 125.124 234.615 126.433 234.872C127.743 235.129 129.1 234.997 130.333 234.493C131.567 233.988 132.621 233.133 133.362 232.037C134.104 230.941 134.5 229.652 134.5 228.333V208.333H141.25Z" fill="black"/>
<path d="M141 223C144.866 223 148 219.866 148 216C148 212.134 144.866 209 141 209C137.134 209 134 212.134 134 216C134 219.866 137.134 223 141 223Z" fill="black"/>
<defs>
<clipPath id="clip0_228_279">
<rect width="35" height="35" fill="white" transform="translate(150 241)"/>
</clipPath>
<clipPath id="clip1_228_279">
<rect width="24" height="24" fill="white" transform="translate(24 176)"/>
</clipPath>
<clipPath id="clip2_228_279">
<rect width="25" height="25" fill="white" transform="translate(23 89)"/>
</clipPath>
</defs>
</svg>
