<svg width="57" height="57" viewBox="0 0 57 57" fill="none" xmlns="http://www.w3.org/2000/svg">
<g clip-path="url(#clip0_203_463)">
<path d="M57 28.5C57.0051 32.358 56.2242 36.1766 54.7048 39.7229L54.6104 39.9404C52.0404 45.7871 47.5841 50.6031 41.9541 53.6182C36.3241 56.6334 29.8456 57.6736 23.5547 56.5724C23.3835 56.5421 23.2126 56.5106 23.042 56.478C21.2791 56.1363 19.5529 55.6272 17.8867 54.9577C17.616 54.849 17.3473 54.7362 17.0806 54.6196C16.8985 54.5403 16.7163 54.4586 16.5359 54.3742C11.5998 52.0865 7.42055 48.4353 4.4908 43.851C1.56105 39.2668 0.00289777 33.9405 0 28.5C0 12.7601 12.7601 0 28.5 0C44.2399 0 57 12.7601 57 28.5Z" fill="#6C63FF"/>
<path opacity="0.2" d="M23.5547 56.5724C23.3836 56.542 23.2127 56.5106 23.0421 56.478C22.9308 53.2477 22.5488 46.6176 21.2461 39.6739C20.5336 35.8736 19.5445 31.9781 18.1726 28.4957C17.7026 27.2907 17.1658 26.1129 16.5646 24.9678C15.1784 22.3496 13.4971 20.1455 11.4583 18.6522L11.7584 18.2424C13.4541 19.4853 14.978 21.2302 16.3302 23.477C16.7358 24.1499 17.1254 24.8677 17.4989 25.6305C17.8994 26.4467 18.2814 27.3132 18.6448 28.2301C18.8767 28.8136 19.1007 29.4173 19.3168 30.0413C20.2578 32.7505 21.0578 35.8416 21.7166 39.3147C21.8624 40.082 22.0013 40.8682 22.1331 41.6731C23.1542 47.9103 23.462 53.6769 23.5547 56.5724Z" fill="black"/>
<path opacity="0.2" d="M17.0805 54.6196C16.8984 54.5403 16.7163 54.4585 16.5358 54.3742C16.3596 52.4601 16.0358 50.0857 15.4439 47.8318C15.1847 46.8196 14.8518 45.8276 14.4481 44.8638C13.7727 43.2828 12.8983 41.9387 11.7676 41.1099L12.0678 40.7009C13.2516 41.5677 14.1648 42.9379 14.8705 44.5408C15.6657 46.347 16.196 48.449 16.5493 50.4575C16.8116 51.9491 16.9768 53.3902 17.0805 54.6196Z" fill="black"/>
<path opacity="0.2" d="M8.62275 18.6405C10.0239 18.6405 11.1598 17.5046 11.1598 16.1035C11.1598 14.7023 10.0239 13.5664 8.62275 13.5664C7.22157 13.5664 6.08569 14.7023 6.08569 16.1035C6.08569 17.5046 7.22157 18.6405 8.62275 18.6405Z" fill="black"/>
<path opacity="0.2" d="M9.43964 40.4801C10.8408 40.4801 11.9767 39.3442 11.9767 37.9431C11.9767 36.5419 10.8408 35.406 9.43964 35.406C8.03847 35.406 6.90259 36.5419 6.90259 37.9431C6.90259 39.3442 8.03847 40.4801 9.43964 40.4801Z" fill="black"/>
<path opacity="0.2" d="M18.6948 20.365C18.1568 23.4003 19.3444 26.1487 19.3444 26.1487C19.3444 26.1487 21.4043 23.9759 21.9423 20.9406C22.4803 17.9054 21.2927 15.157 21.2927 15.157C21.2927 15.157 19.2328 17.3297 18.6948 20.365Z" fill="black"/>
<path opacity="0.2" d="M10.2631 27.5701C13.1582 28.6288 16.0674 27.9494 16.0674 27.9494C16.0674 27.9494 14.2826 25.5537 11.3875 24.495C8.49243 23.4364 5.58325 24.1158 5.58325 24.1158C5.58325 24.1158 7.36797 26.5115 10.2631 27.5701Z" fill="black"/>
<path opacity="0.2" d="M9.77217 46.9097C11.8014 47.6517 13.8434 47.1676 13.8434 47.1676C13.8434 47.1676 12.5953 45.4805 10.5661 44.7385C8.53685 43.9965 6.49487 44.4806 6.49487 44.4806C6.49487 44.4806 7.74294 46.1677 9.77217 46.9097Z" fill="black"/>
<path d="M28.4416 34.8112C34.5779 34.8112 39.5524 29.8367 39.5524 23.7004C39.5524 17.5641 34.5779 12.5896 28.4416 12.5896C22.3053 12.5896 17.3308 17.5641 17.3308 23.7004C17.3308 29.8367 22.3053 34.8112 28.4416 34.8112Z" fill="#D0CDE1"/>
<path d="M24.1013 32.2072C24.1013 32.2072 25.4902 38.8043 25.4902 39.4987C25.4902 40.1931 32.0872 43.318 32.0872 43.318L37.9898 42.2764L40.0731 36.0266C40.0731 36.0266 36.601 30.8184 36.601 28.7351L24.1013 32.2072Z" fill="#D0CDE1"/>
<path d="M54.7047 39.723L54.6103 39.9405C52.0403 45.7871 47.5839 50.6031 41.9539 53.6183C36.3239 56.6334 29.8455 57.6736 23.5545 56.5725C23.3834 56.5421 23.2125 56.5107 23.0419 56.4781C21.279 56.1363 19.5528 55.6273 17.8866 54.9578C17.6159 54.849 17.3472 54.7363 17.0805 54.6197C16.8984 54.5404 16.7162 54.4586 16.5358 54.3743C14.9002 53.6166 13.3403 52.7052 11.8771 51.6525L10.5601 47.832L11.3004 47.267L12.8232 46.1043L14.448 44.8639L14.8705 44.541L21.2459 39.6741L21.7164 39.3149L25.0301 36.7853L25.031 36.7845C25.031 36.7845 28.6146 42.6236 33.823 40.8874C39.0314 39.1513 38.9176 34.1731 38.9176 34.1731L54.7047 39.723Z" fill="#2F2E41"/>
<path d="M18.8062 14.7489C18.8062 14.7489 22.3338 7.10567 29.0951 8.86948C35.8565 10.6333 39.6781 13.279 39.972 15.9248C40.266 18.5705 39.825 22.5391 39.825 22.5391C39.825 22.5391 39.0901 17.1006 34.3866 18.2765C29.6831 19.4524 22.3338 18.5705 22.3338 18.5705L21.158 29.1534C21.158 29.1534 19.8351 27.2426 18.3653 28.4185C16.8954 29.5943 14.1027 17.1006 18.8062 14.7489Z" fill="#2F2E41"/>
<path d="M17.8867 54.9579C17.6161 54.8491 17.3474 54.7364 17.0806 54.6198C16.8985 54.5405 16.7164 54.4587 16.5359 54.3744C13.8309 53.12 11.3389 51.45 9.15039 49.4248C9.92529 48.3691 10.5602 47.832 10.5602 47.832H15.7686L16.5494 50.4577L17.8867 54.9579Z" fill="#2F2E41"/>
<path d="M50.1423 39.1511L54.6104 39.9404C53.4147 42.6643 51.7998 45.1842 49.8245 47.4085L50.1423 39.1511Z" fill="#2F2E41"/>
</g>
<defs>
<clipPath id="clip0_203_463">
<rect width="57" height="57" fill="white"/>
</clipPath>
</defs>
</svg>
