<svg width="32" height="32" viewBox="0 0 32 32" fill="none" xmlns="http://www.w3.org/2000/svg">
<path d="M16 7.3335C7.028 7.3335 0 11.1402 0 16.0002C0 20.8602 7.028 24.6668 16 24.6668C24.972 24.6668 32 20.8602 32 16.0002C32 11.1402 24.972 7.3335 16 7.3335ZM14.3387 10.0002H16.0853L15.5307 12.6668H17.0907C18.08 12.6668 18.744 12.8055 19.1227 13.1508C19.492 13.4922 19.604 14.0522 19.456 14.8148L18.7627 18.0002H16.9867L17.6253 15.0548C17.7027 14.6508 17.672 14.3695 17.536 14.2215C17.4013 14.0735 17.104 14.0002 16.6587 14.0002H15.26L14.416 18.0002H12.6667L14.3387 10.0002ZM6.66667 12.6668H10.2213C11.916 12.6668 12.9427 13.8028 12.5413 15.4975C12.0747 17.4668 10.8267 18.0002 8.528 18.0002H7.42933L7.08133 20.0002H5.31467L6.66667 12.6668ZM20.6667 12.6668H24.2213C25.916 12.6668 26.9427 13.8028 26.5413 15.4975C26.0747 17.4668 24.8253 18.0002 22.528 18.0002H21.4293L21.0813 20.0002H19.3147L20.6667 12.6668ZM8.18 14.0002L7.67733 16.6668H8.81733C9.804 16.6668 10.7213 16.5548 10.8747 15.0828C10.932 14.5135 10.6947 14.0002 9.55467 14.0002H8.18ZM22.18 14.0002L21.6773 16.6668H22.8173C23.804 16.6668 24.7213 16.5548 24.8747 15.0828C24.932 14.5135 24.696 14.0002 23.5547 14.0002H22.18Z" fill="black"/>
</svg>
