<svg width="32" height="32" viewBox="0 0 32 32" fill="none" xmlns="http://www.w3.org/2000/svg">
<path d="M11.7101 15.5224H19.3984C19.3984 15.5224 23.7186 15.5921 23.7186 11.3257V4.26992C23.7186 4.26992 24.3741 0 15.8864 0C7.76113 0 8.2674 3.5413 8.2674 3.5413L8.27806 7.21118H16.0285V8.31304H5.19955C5.19955 8.31304 0 7.72014 0 15.96C0 24.1998 4.53872 23.9069 4.53872 23.9069H7.24597V20.0834C7.24597 20.0834 7.09853 15.5224 11.7101 15.5224ZM11.6106 5.27177C11.2408 5.27177 10.8861 5.12407 10.6246 4.86117C10.363 4.59827 10.2161 4.24169 10.2161 3.86989C10.2161 3.49809 10.363 3.14152 10.6246 2.87862C10.8861 2.61571 11.2408 2.46802 11.6106 2.46802C11.9804 2.46802 12.3351 2.61571 12.5966 2.87862C12.8582 3.14152 13.0051 3.49809 13.0051 3.86989C13.0051 4.24169 12.8582 4.59827 12.5966 4.86117C12.3351 5.12407 11.9804 5.27177 11.6106 5.27177Z" fill="black"/>
<path d="M27.4611 8.09306H24.7539V11.9165C24.7539 11.9165 24.9013 16.4775 20.2898 16.4775H12.6015C12.6015 16.4775 8.28126 16.4061 8.28126 20.6742V27.7301C8.28126 27.7301 7.62577 32 16.1134 32C24.237 32 23.7307 28.4587 23.7307 28.4587L23.72 24.7906H15.9696V23.6887H26.8003C26.8003 23.6887 31.9999 24.2816 31.9999 16.0418C31.9999 7.80197 27.4611 8.09306 27.4611 8.09306ZM20.3893 26.73C20.7591 26.73 21.1138 26.8777 21.3753 27.1406C21.6368 27.4035 21.7837 27.7601 21.7837 28.1319C21.7837 28.5037 21.6368 28.8602 21.3753 29.1231C21.1138 29.386 20.7591 29.5337 20.3893 29.5337C20.0194 29.5337 19.6647 29.386 19.4032 29.1231C19.1417 28.8602 18.9948 28.5037 18.9948 28.1319C18.9948 27.7601 19.1417 27.4035 19.4032 27.1406C19.6647 26.8777 20.0194 26.73 20.3893 26.73Z" fill="black"/>
</svg>
