<svg width="32" height="32" viewBox="0 0 32 32" fill="none" xmlns="http://www.w3.org/2000/svg">
<path d="M28 0H4C2.93913 0 1.92172 0.421427 1.17157 1.17157C0.421427 1.92172 0 2.93913 0 4V28C0 29.0609 0.421427 30.0783 1.17157 30.8284C1.92172 31.5786 2.93913 32 4 32H28C29.0609 32 30.0783 31.5786 30.8284 30.8284C31.5786 30.0783 32 29.0609 32 28V4C32 2.93913 31.5786 1.92172 30.8284 1.17157C30.0783 0.421427 29.0609 0 28 0ZM13.92 24.32C13.92 24.8292 13.7177 25.3176 13.3576 25.6776C12.9976 26.0377 12.5092 26.24 12 26.24H6.08C5.024 26.24 4.16 25.376 4.16 24.32V6.08C4.16 5.57078 4.36229 5.08242 4.72235 4.72235C5.08242 4.36229 5.57078 4.16 6.08 4.16H12C13.056 4.16 13.92 5.024 13.92 6.08V24.32ZM27.84 16.32C27.84 17.376 26.976 18.24 25.92 18.24H20C18.944 18.24 18.08 17.376 18.08 16.32V6.08C18.08 5.024 18.944 4.16 20 4.16H25.92C26.976 4.16 27.84 5.024 27.84 6.08V16.32Z" fill="black"/>
</svg>
