<svg width="28" height="27" viewBox="0 0 28 27" fill="none" xmlns="http://www.w3.org/2000/svg">
<path d="M13.9205 -0.000366211C21.3765 -0.000366211 27.4205 6.04358 27.4205 13.4996C27.4205 20.9557 21.3765 26.9996 13.9205 26.9996C11.5347 27.0035 9.19097 26.3721 7.12999 25.1704L0.42589 26.9996L2.25109 20.2928C1.04837 18.2312 0.416504 15.8864 0.42049 13.4996C0.42049 6.04358 6.46444 -0.000366211 13.9205 -0.000366211ZM9.31968 7.15463L9.04968 7.16543C8.87489 7.17607 8.70406 7.222 8.54748 7.30043C8.40104 7.38336 8.26735 7.48703 8.15059 7.60823C7.98858 7.76078 7.89678 7.89308 7.79823 8.02133C7.2989 8.67055 7.03005 9.4676 7.03414 10.2866C7.03684 10.9481 7.20964 11.5921 7.47964 12.1942C8.03178 13.4119 8.94033 14.7011 10.1391 15.8959C10.428 16.1834 10.7115 16.4723 11.0166 16.741C12.5062 18.0524 14.2813 18.9982 16.2006 19.5031L16.9674 19.6205C17.2172 19.634 17.4669 19.6151 17.718 19.603C18.1112 19.5827 18.4951 19.4762 18.8426 19.2911C19.0194 19.2001 19.1919 19.101 19.3596 18.9941C19.3596 18.9941 19.4177 18.9563 19.5284 18.8726C19.7106 18.7376 19.8227 18.6418 19.9739 18.4838C20.0859 18.3677 20.1831 18.2314 20.2574 18.0761C20.3627 17.8561 20.468 17.4362 20.5112 17.0866C20.5436 16.8193 20.5341 16.6735 20.5301 16.583C20.5247 16.4386 20.4045 16.2887 20.2736 16.2253L19.4879 15.8729C19.4879 15.8729 18.3134 15.3613 17.5952 15.0346C17.52 15.0018 17.4395 14.983 17.3576 14.9792C17.2652 14.9697 17.1719 14.9801 17.0839 15.0097C16.9958 15.0393 16.9152 15.0873 16.8473 15.1507C16.8405 15.148 16.7501 15.2249 15.774 16.4075C15.718 16.4828 15.6408 16.5397 15.5524 16.5709C15.4639 16.6022 15.3681 16.6064 15.2772 16.583C15.1893 16.5594 15.1031 16.5297 15.0194 16.4939C14.852 16.4237 14.7939 16.3967 14.6792 16.3481C13.9044 16.01 13.187 15.5532 12.5529 14.9941C12.3828 14.8456 12.2249 14.6836 12.0629 14.527C11.5318 14.0183 11.0689 13.4429 10.6859 12.8152L10.6062 12.6869C10.549 12.6007 10.5028 12.5078 10.4685 12.4102C10.4172 12.2117 10.5509 12.0524 10.5509 12.0524C10.5509 12.0524 10.8789 11.6933 11.0315 11.4989C11.18 11.3099 11.3055 11.1263 11.3865 10.9954C11.5458 10.7389 11.5958 10.4756 11.5121 10.2718C11.1341 9.34838 10.7426 8.42903 10.3403 7.51643C10.2606 7.33553 10.0244 7.20593 9.80973 7.18028C9.73683 7.17218 9.66393 7.16408 9.59103 7.15868C9.40974 7.14967 9.22807 7.15148 9.04698 7.16408L9.31833 7.15328L9.31968 7.15463Z" fill="white"/>
</svg>
