<svg width="27" height="19" viewBox="0 0 27 19" fill="none" xmlns="http://www.w3.org/2000/svg">
<path d="M10.8005 13.5496L17.807 9.49963L10.8005 5.44963V13.5496ZM26.4065 2.97913C26.582 3.61363 26.7035 4.46413 26.7845 5.54413C26.879 6.62413 26.9195 7.55563 26.9195 8.36563L27.0005 9.49963C27.0005 12.4561 26.7845 14.6296 26.4065 16.0201C26.069 17.2351 25.286 18.0181 24.071 18.3556C23.4365 18.5311 22.2755 18.6526 20.4935 18.7336C18.7385 18.8281 17.132 18.8686 15.647 18.8686L13.5005 18.9496C7.84399 18.9496 4.32049 18.7336 2.92999 18.3556C1.71499 18.0181 0.931988 17.2351 0.594488 16.0201C0.418988 15.3856 0.297488 14.5351 0.216488 13.4551C0.121988 12.3751 0.0814882 11.4436 0.0814882 10.6336L0.000488281 9.49963C0.000488281 6.54313 0.216488 4.36963 0.594488 2.97913C0.931988 1.76413 1.71499 0.981133 2.92999 0.643633C3.56449 0.468133 4.72549 0.346633 6.50749 0.265633C8.26249 0.171133 9.86899 0.130633 11.354 0.130633L13.5005 0.049633C19.157 0.049633 22.6805 0.265633 24.071 0.643633C25.286 0.981133 26.069 1.76413 26.4065 2.97913Z" fill="white"/>
</svg>
